<?xml version="1.0" encoding="UTF-8"?>
<svg version="1.1" xmlns="http://www.w3.org/2000/svg" width="512" height="512">
<path d="M0 0 C3.19523356 1.74346109 6.31442335 3.59999019 9.42431641 5.48974609 C10.7690648 6.30180055 12.11404203 7.11347615 13.45922852 7.92480469 C14.14346893 8.33784851 14.82770935 8.75089233 15.53268433 9.17645264 C18.69705399 11.08021513 21.87454204 12.96156975 25.05322266 14.84130859 C26.31740267 15.58964745 27.58156256 16.33802029 28.84570312 17.08642578 C29.48344666 17.46391968 30.12119019 17.84141357 30.77825928 18.23034668 C42.4571763 25.1449791 54.08807208 32.13096081 65.67037964 39.20608521 C74.1506491 44.3813276 82.70268685 49.40409909 91.32275391 54.34130859 C98.62534774 58.52799754 105.91088818 62.72947399 113.07275391 67.15380859 C113.71954102 67.54818115 114.36632812 67.94255371 115.03271484 68.34887695 C117.96859136 70.18807889 119.61766075 71.47116885 121.57275391 74.40380859 C121.83345032 76.97702026 121.83345032 76.97702026 121.84741211 80.10253906 C121.85694412 81.27581757 121.86647614 82.44909607 121.876297 83.65792847 C121.87492989 85.57014694 121.87492989 85.57014694 121.87353516 87.52099609 C121.87742969 88.85645682 121.8817659 90.19191633 121.88652039 91.52737427 C121.89399559 94.3402301 121.89368868 97.15296062 121.88842773 99.96582031 C121.88384986 102.80908249 121.89050109 105.65191169 121.90893555 108.49511719 C122.2396103 159.91778599 108.73007351 205.9248776 74.57275391 245.40380859 C73.90244141 246.18498047 73.23212891 246.96615234 72.54150391 247.77099609 C62.49110926 259.20894522 51.70529897 270.17906359 39.57275391 279.40380859 C38.78626465 280.01289062 38.78626465 280.01289062 37.98388672 280.63427734 C30.13797406 286.69268642 21.98758052 292.16563405 13.57275391 297.40380859 C12.68861816 297.95584961 11.80448242 298.50789063 10.89355469 299.07666016 C-1.12986918 306.45285372 -1.12986918 306.45285372 -6.90380859 306.32958984 C-10.90692023 305.27777448 -14.25925478 303.66989926 -17.80224609 301.59130859 C-18.48851074 301.1960498 -19.17477539 300.80079102 -19.88183594 300.39355469 C-38.2543184 289.58988553 -55.0789222 276.13648143 -70.42724609 261.40380859 C-70.94029297 260.91799316 -71.45333984 260.43217773 -71.98193359 259.93164062 C-79.96800049 252.34842418 -86.85526057 244.23126844 -93.42724609 235.40380859 C-93.85779297 234.83404297 -94.28833984 234.26427734 -94.73193359 233.67724609 C-101.49054475 224.70672583 -107.22797402 215.35620236 -112.42724609 205.40380859 C-113.03310547 204.24751953 -113.63896484 203.09123047 -114.26318359 201.89990234 C-128.86563941 172.33158118 -132.6433945 142.03028606 -132.77734375 109.51025391 C-132.79075151 106.59848094 -132.81875672 103.68739743 -132.859375 100.77587891 C-132.90869416 97.23816299 -132.93345943 93.70107747 -132.94057083 90.16303253 C-132.95051147 88.17264708 -132.98473207 86.18243049 -133.01937866 84.19232178 C-132.99830271 75.23064695 -132.99830271 75.23064695 -130.26660156 71.27539062 C-129.32961426 70.65776855 -128.39262695 70.04014648 -127.42724609 69.40380859 C-126.02490723 68.46819092 -126.02490723 68.46819092 -124.59423828 67.51367188 C-123.56459961 66.92312012 -122.53496094 66.33256836 -121.47412109 65.72412109 C-120.90600204 65.39496704 -120.337883 65.06581299 -119.75254822 64.72668457 C-118.53331549 64.02135441 -117.31205531 63.31951917 -116.08895874 62.62091064 C-113.46870922 61.12404349 -110.85863667 59.60981739 -108.24784851 58.0965271 C-106.9084257 57.32030697 -105.56850779 56.54494055 -104.22810364 55.77041626 C-98.15033852 52.25588839 -92.12614464 48.65562638 -86.11474609 45.02880859 C-75.89412517 38.87362068 -65.64300068 32.77146115 -55.37844849 26.68994141 C-48.29960308 22.49576073 -41.22638355 18.29356801 -34.18505859 14.03662109 C-33.06099609 13.35792969 -31.93693359 12.67923828 -30.77880859 11.97998047 C-28.70647965 10.7267985 -26.63600194 9.47054727 -24.56787109 8.21044922 C-6.39823252 -2.77438075 -6.39823252 -2.77438075 0 0 Z M23.07275391 139.80615234 C21.98581588 140.89495963 20.89865376 141.98354325 19.8112793 143.07191467 C16.97492167 145.91205749 14.14158226 148.75519219 11.30889893 151.59899902 C8.40781137 154.5103875 5.50382677 157.41888327 2.60009766 160.32763672 C-3.07849427 166.0168953 -8.75389525 171.70932358 -14.42724609 177.40380859 C-17.3299251 176.09561349 -19.34218911 174.71860539 -21.54003906 172.42285156 C-22.41147049 171.52214432 -22.41147049 171.52214432 -23.30050659 170.60324097 C-23.9172525 169.95735016 -24.53399841 169.31145935 -25.16943359 168.64599609 C-26.49566394 167.28474144 -27.82250574 165.92408228 -29.14990234 164.56396484 C-31.23241395 162.41946494 -33.30993702 160.27077375 -35.37695312 158.11132812 C-37.3776476 156.02598339 -39.39675152 153.95999012 -41.41943359 151.89599609 C-42.03213104 151.24605682 -42.64482849 150.59611755 -43.27609253 149.92648315 C-46.8652948 146.27316796 -46.8652948 146.27316796 -51.71679688 144.90039062 C-54.50924761 145.2378009 -54.50924761 145.2378009 -56.80224609 146.96630859 C-59.1602782 150.50335675 -59.0942159 152.18115625 -58.42724609 156.40380859 C-56.04585899 159.83828604 -53.12149083 162.66613626 -50.14208984 165.58349609 C-48.86852379 166.86355026 -48.86852379 166.86355026 -47.56922913 168.16946411 C-45.77104278 169.96803161 -43.96410669 171.75788759 -42.14916992 173.53955078 C-39.37640674 176.26733709 -36.63993008 179.02802327 -33.90576172 181.79443359 C-32.15327273 183.53870161 -30.39877966 185.28095889 -28.64208984 187.02099609 C-27.82514145 187.84695282 -27.00819305 188.67290955 -26.16648865 189.52389526 C-22.83092373 192.7648127 -20.18316199 195.09487758 -15.85131836 196.86523438 C-10.51870866 196.14661531 -8.10464929 193.15945747 -4.42724609 189.40380859 C-2.95707289 187.96711164 -1.48689328 186.53042124 -0.01661015 185.09383678 C2.86535193 182.26291258 5.71506324 179.3998035 8.56884766 176.54052734 C9.81040616 175.29964353 11.05211299 174.05890811 12.29396057 172.8183136 C14.87997303 170.23376701 17.464189 167.64744133 20.04711914 165.05981445 C23.3615046 161.73969636 26.68040808 158.42413643 30.00063992 155.10986614 C32.55798286 152.55612836 35.11294977 150.00002414 37.66719246 147.44318581 C38.89090606 146.21880467 40.11536419 144.9951672 41.34057426 143.77228355 C43.04466189 142.07072556 44.74552827 140.36601267 46.44555664 138.66040039 C46.95303436 138.1549469 47.46051208 137.64949341 47.98336792 137.12872314 C51.65345936 133.44654672 51.65345936 133.44654672 52.88525391 128.52880859 C52.82060308 125.35856093 52.82060308 125.35856093 50.94775391 123.02880859 C48.64814553 121.25335456 48.64814553 121.25335456 45.82275391 120.71630859 C36.8526626 122.61382791 29.4037036 133.44284245 23.07275391 139.80615234 Z " fill="#5E93FF" transform="translate(261.42724609375,103.59619140625)"/>
<path d="M0 0 C2.6495391 0.45700469 4.08458331 1.36494373 5.90234375 3.328125 C15.23038543 31.31225004 -5.12692432 74.46520309 -17.33984375 99.05859375 C-33.85201631 131.21482248 -57.53077648 157.47956214 -89.09765625 175.328125 C-89.71511719 175.68326172 -90.33257812 176.03839844 -90.96875 176.40429688 C-116.1588842 190.79509631 -155.44551996 206.20442841 -185.09765625 200.328125 C-188.63570311 197.48324651 -189.95930369 196.31388697 -190.59765625 191.765625 C-190.0845272 188.2378628 -189.63577716 186.77224143 -187.09765625 184.328125 C-184.34887807 183.41186561 -182.33511255 183.1185505 -179.4765625 182.93359375 C-151.87752704 180.96687095 -125.39650374 175.04114365 -101.09765625 161.328125 C-100.47101074 160.98168945 -99.84436523 160.63525391 -99.19873047 160.27832031 C-89.43152181 154.84131544 -80.64875077 148.51246704 -72.09765625 141.328125 C-71.58106445 140.90337891 -71.06447266 140.47863281 -70.53222656 140.04101562 C-37.19655602 112.42186662 -16.04381756 63.25178725 -11.8112793 20.85644531 C-11.58919738 18.37847864 -11.38809554 15.89852281 -11.21020508 13.41699219 C-11.07328247 11.72558105 -11.07328247 11.72558105 -10.93359375 10 C-10.8670459 9.0006543 -10.80049805 8.00130859 -10.73193359 6.97167969 C-9.29488762 0.98232873 -5.55257962 -0.28951998 0 0 Z " fill="#936CFF" transform="translate(441.09765625,247.671875)"/>
<path d="M0 0 C2.29968563 3.21955988 2.55348638 6.12559532 2 10 C-0.06483041 12.94600008 -1.73847766 14.71555078 -5.32250977 15.52368164 C-8.21728019 15.8063751 -11.09353602 15.9531379 -14 16.0625 C-54.18102805 18.55615969 -91.21950329 33.74394274 -121 61 C-121.94230469 61.85980469 -122.88460937 62.71960938 -123.85546875 63.60546875 C-154.73870368 93.09482001 -174.69596615 140.19575048 -177.22973633 182.47827148 C-177.60153437 187.95663268 -178.38808538 192.13441342 -181 197 C-184.12942465 198.56471233 -187.61082223 198.69701958 -191 198 C-193.2265625 196.56640625 -193.2265625 196.56640625 -195 194 C-195.60996943 190.86790537 -195.56678143 187.80699002 -195.5 184.625 C-195.48791504 183.69888916 -195.47583008 182.77277832 -195.46337891 181.81860352 C-194.10900554 133.05705824 -167.9503915 81.52644455 -133.2265625 47.9765625 C-104.00564669 20.54285866 -66.42795364 4.44079319 -27 -1 C-26.04480469 -1.13277344 -25.08960938 -1.26554687 -24.10546875 -1.40234375 C-5.54633768 -3.59106195 -5.54633768 -3.59106195 0 0 Z " fill="#31B5FF" transform="translate(259,66)"/>
<path d="M0 0 C0.7528125 -0.01289063 1.505625 -0.02578125 2.28125 -0.0390625 C5.72818746 0.99259132 6.71120425 2.53562569 8.5 5.625 C9.06041503 8.59846055 9.01957087 11.482567 8.9375 14.5 C8.92283691 15.37567627 8.90817383 16.25135254 8.89306641 17.15356445 C7.98194741 50.00897986 -0.82683735 82.76928541 -16.5 111.625 C-16.85175293 112.28693359 -17.20350586 112.94886719 -17.56591797 113.63085938 C-32.3436728 141.39311339 -53.36711386 165.76609808 -78.5 184.625 C-79.45003906 185.346875 -80.40007812 186.06875 -81.37890625 186.8125 C-100.45757991 201.03124951 -100.45757991 201.03124951 -107.0625 201.375 C-110.5 200.625 -110.5 200.625 -113 199.125 C-114.68959029 196.30901619 -115.0184812 193.98993864 -115.12890625 190.72265625 C-113.38804641 184.91618586 -107.10180778 181.99463369 -102.1875 179.125 C-93.2876445 173.74076779 -85.36894634 167.40482619 -77.5 160.625 C-76.68112305 159.91996338 -76.68112305 159.91996338 -75.84570312 159.20068359 C-69.90761317 154.04323157 -64.51427513 148.67483195 -59.5 142.625 C-58.74203125 141.75488281 -57.9840625 140.88476562 -57.203125 139.98828125 C-28.54407847 106.65656409 -10.88070866 62.75260694 -9.3046875 18.75390625 C-9.2727832 17.93962158 -9.24087891 17.12533691 -9.20800781 16.28637695 C-9.15423437 14.72425854 -9.11857158 13.16136893 -9.10449219 11.59838867 C-8.99498692 8.00800527 -8.58165575 5.7632704 -6.7421875 2.6484375 C-4.25419373 0.40317483 -3.29883071 -0.05648683 0 0 Z " fill="#A161FF" transform="translate(467.5,247.375)"/>
<path d="M0 0 C3.20095991 2.64079192 3.8768642 4.38432102 4.6875 8.4375 C3.69795118 13.56516208 1.20234377 15.15207016 -3 18 C-5.66867656 19.72752887 -8.35764689 21.41866795 -11.0546875 23.1015625 C-28.60441688 34.41345704 -44.06505853 48.68041551 -57 65 C-57.7940625 65.96550781 -58.588125 66.93101562 -59.40625 67.92578125 C-86.10901364 101.17748217 -100.55177694 144.50008654 -101.4296875 186.890625 C-101.60543139 191.69429134 -101.84815364 195.11841581 -105 199 C-108.12942465 200.56471233 -111.61082223 200.69701958 -115 200 C-117.2265625 198.609375 -117.2265625 198.609375 -119 196 C-119.61997848 192.64131659 -119.56555578 189.34411049 -119.5 185.9375 C-119.48864014 184.93106445 -119.47728027 183.92462891 -119.46557617 182.88769531 C-118.09297907 127.38887744 -93.70200093 76.81686386 -56 37 C-55.1234375 36.06929687 -54.246875 35.13859375 -53.34375 34.1796875 C-46.42358863 27.03563856 -38.96864266 20.92731923 -31 15 C-30.3915625 14.5467334 -29.783125 14.0934668 -29.15625 13.62646484 C-8.74474163 -1.4821596 -8.74474163 -1.4821596 0 0 Z " fill="#27BDFF" transform="translate(155,64)"/>
<path d="M0 0 C1.41433319 0.00173721 1.41433319 0.00173721 2.85723877 0.00350952 C17.0664971 0.03799436 30.8915699 0.57517015 44.875 3.3125 C45.57189941 3.44060059 46.26879883 3.56870117 46.98681641 3.70068359 C58.17610863 5.78895111 58.17610863 5.78895111 61.875 9.3125 C62.93878903 11.96089143 63.12378035 14.47640399 62.875 17.3125 C61.11035939 20.17243478 59.87934303 21.81032849 56.875 23.3125 C49.43310038 23.2534373 41.98953964 21.73640212 34.68554688 20.41699219 C4.34435887 15.06186741 -28.01479506 17.44419207 -57.61767578 25.33056641 C-72.06676743 29.10268492 -72.06676743 29.10268492 -77.6875 25.8125 C-79.6695707 22.36542052 -79.96827226 19.20218824 -79.125 15.3125 C-77.48492482 12.09242565 -76.23604217 11.35808294 -72.8515625 9.96875 C-71.48961598 9.56520403 -70.12183529 9.18103169 -68.75 8.8125 C-68.00685547 8.60455811 -67.26371094 8.39661621 -66.49804688 8.18237305 C-60.5907268 6.58542102 -54.63047546 5.29331971 -48.625 4.125 C-47.83303223 3.9703125 -47.04106445 3.815625 -46.22509766 3.65625 C-30.80446903 0.82168889 -15.65184073 -0.05969258 0 0 Z " fill="#3AAFFF" transform="translate(256.125,7.6875)"/>
<path d="M0 0 C2.375 1 2.375 1 4 3 C4.90693419 5.72080258 5.41725634 8.15222546 5 11 C2.50425113 14.77828649 -0.12930556 16.96905506 -4 19.25 C-36.08725647 38.99600398 -61.70289879 67.82079138 -79.90356445 100.57592773 C-83.37183557 106.62717192 -83.37183557 106.62717192 -86.65234375 108.57421875 C-89.78108648 109.14166127 -91.95624438 108.9263604 -95 108 C-96.875 106.4375 -96.875 106.4375 -98 104 C-98.44339545 98.0110389 -97.86542166 94.74771032 -94.6875 89.5 C-94.15443237 88.61441406 -94.15443237 88.61441406 -93.6105957 87.7109375 C-82.83092298 70.08362576 -70.32203695 53.87394589 -56 39 C-55.49823242 38.47631836 -54.99646484 37.95263672 -54.47949219 37.41308594 C-16.07514649 -2.47309946 -16.07514649 -2.47309946 0 0 Z " fill="#21C1FF" transform="translate(134,43)"/>
<path d="M0 0 C2.84014184 2.36678487 2.98837854 3.88899089 3.375 7.58203125 C3.28668713 12.92133072 0.87680206 16.68195773 -1.875 21.125 C-2.37241699 21.95322266 -2.86983398 22.78144531 -3.38232422 23.63476562 C-12.18583542 38.09787631 -22.53266577 51.22403103 -33.9453125 63.72265625 C-35.70565798 65.6737616 -37.39184323 67.66013544 -39.0625 69.6875 C-41.73313212 72.82640734 -44.68784425 75.47456345 -47.828125 78.13671875 C-50.11119401 80.09539486 -52.29866603 82.13760008 -54.5 84.1875 C-60.72502065 89.8063749 -67.42668857 94.75818536 -74.20410156 99.68310547 C-75.72401717 100.7976276 -77.2203149 101.94424943 -78.7109375 103.09765625 C-83.08253501 106.34184177 -86.51088161 107.93569859 -92.046875 107.51953125 C-94 107 -94 107 -96.5625 104.875 C-98.25419769 101.49160462 -98.62195931 99.73175586 -98 96 C-94.92387749 91.34341354 -91.01993558 88.73901241 -86.4375 85.75 C-75.08545202 78.13413395 -64.9161051 69.38365265 -55 60 C-53.60587891 58.68708984 -53.60587891 58.68708984 -52.18359375 57.34765625 C-45.03559211 50.42334741 -38.94200546 42.96333283 -33 35 C-32.57332031 34.43410156 -32.14664063 33.86820312 -31.70703125 33.28515625 C-26.03381865 25.72669146 -21.01743788 17.93278012 -16.39819336 9.68432617 C-12.34978938 2.54162217 -8.93942535 -2.42109437 0 0 Z " fill="#AC59FF" transform="translate(473,361)"/>
<path d="M0 0 C2.68976372 3.2435386 2.71891274 5.24700374 2.7890625 9.34375 C1.77547855 12.73031285 0.09303681 13.69776483 -2.875 15.5625 C-5.61265387 16.64023555 -8.39437313 17.36515087 -11.25 18.0625 C-12.06782959 18.2697168 -12.88565918 18.47693359 -13.72827148 18.69042969 C-30.32588038 22.75540432 -47.33656451 25.67365157 -64.44921875 25.765625 C-65.32797165 25.77254868 -66.20672455 25.77947235 -67.11210632 25.78660583 C-69.92895026 25.8037748 -72.74560623 25.81019141 -75.5625 25.8125 C-76.5228717 25.81383942 -77.48324341 25.81517883 -78.47271729 25.81655884 C-92.82453526 25.81221244 -106.74953351 25.32763422 -120.875 22.5625 C-121.57189941 22.43439941 -122.26879883 22.30629883 -122.98681641 22.17431641 C-134.09747556 20.10072425 -134.09747556 20.10072425 -137.875 16.5625 C-138.95345965 12.68004525 -139.26723942 10.4914881 -137.6875 6.75 C-135.75145182 4.41339012 -134.69160794 3.60019766 -131.875 2.5625 C-129.37890625 2.69921875 -129.37890625 2.69921875 -126.4375 3.25 C-124.70113281 3.54777344 -124.70113281 3.54777344 -122.9296875 3.8515625 C-122.28483398 3.96532227 -121.63998047 4.07908203 -120.97558594 4.19628906 C-84.5348647 10.54927394 -47.5946393 9.91927319 -11.96875 -0.703125 C-7.4602828 -1.77331671 -4.18657018 -2.09328509 0 0 Z " fill="#8774FF" transform="translate(331.875,478.4375)"/>
</svg>
